#Comment line ignore any data following # character 
#Hierarchical Translation and Rotation (.htr) file 
[Header]	
#Header keywords are followed by a single value 
FileType HTR		#Single word string
DataType HTRS		#Translation followed by rotation and scale data
FileVersion 1		#integer
NumSegments 64		#integer
NumFrames 3		#integer
DataFrameRate 30		#integer, data frame rate in this file
EulerRotationOrder ZYX
CalibrationUnits mm
RotationUnits Degrees
GlobalAxisofGravity Y
BoneLengthAxis Y
ScaleFactor 1.00
[SegmentNames&Hierarchy]
#CHILD	PARENT
Pinger_Root GLOBAL
Pelvis Pinger_Root
L_Hip Pelvis
R_Hip Pelvis
Rear_Leg01 Pelvis
Spine1 Pelvis
L_Leg01 L_Hip
L_Leg02 L_Leg01
L_Leg03 L_Leg02
L_Foot L_Leg03
L_Toe1_01 L_Foot
L_Toe2_01 L_Foot
L_Toe3_01 L_Foot
planeAlignerLeft L_Foot
L_Toe1_02 L_Toe1_01
L_Toe1_03 L_Toe1_02
L_Toe2_02 L_Toe2_01
L_Toe2_03 L_Toe2_02
L_Toe3_02 L_Toe3_01
L_Toe3_03 L_Toe3_02
planeLockWeightLeft planeAlignerLeft
R_Leg01 R_Hip
R_Leg02 R_Leg01
R_Leg03 R_Leg02
R_Foot R_Leg03
planeAlignerRight R_Foot
R_Toe1_01 R_Foot
R_Toe2_01 R_Foot
R_Toe3_01 R_Foot
planeLockWeightRight planeAlignerRight
R_Toe1_02 R_Toe1_01
R_Toe1_03 R_Toe1_02
R_Toe2_02 R_Toe2_01
R_Toe2_03 R_Toe2_02
R_Toe3_02 R_Toe3_01
R_Toe3_03 R_Toe3_02
Rear_Leg02 Rear_Leg01
Rear_Leg03 Rear_Leg02
Rear_Leg04 Rear_Leg03
Rear_Foot Rear_Leg04
planeAlignerCenter Rear_Foot
Rear_Toe1_01 Rear_Foot
Rear_Toe2_01 Rear_Foot
Rear_Toe3_01 Rear_Foot
planeLockWeightCenter planeAlignerCenter
Rear_Toe1_02 Rear_Toe1_01
Rear_Toe1_03 Rear_Toe1_02
Rear_Toe2_02 Rear_Toe2_01
Rear_Toe2_03 Rear_Toe2_02
Rear_Toe3_02 Rear_Toe3_01
Rear_Toe3_03 Rear_Toe3_02
Back_Bone Spine1
Head Spine1
Motor_Bone Back_Bone
Ping_Mechanism Back_Bone
BN_LookIK Head
bottomMouth Head
L_Mouth01 Head
L_mouthFront Head
mouthGun Head
R_Mouth01 Head
R_mouthFront Head
TopMouth Head
weapon_bone Head
[BasePosition]
#SegmentName Tx, Ty, Tz, Rx, Ry, Rz, BoneLength
Pinger_Root 0.000000 0.000000 0.000000 -90.000000 0.000000 0.000000 10.000000 
Pelvis 0.000000 0.000000 0.000000 0.000000 0.000000 0.000000 10.000000 
L_Hip 0.000000 0.000000 0.000000 0.000000 0.000000 0.000000 10.000000 
R_Hip 0.000000 0.000000 0.000000 0.000000 0.000000 0.000000 10.000000 
Rear_Leg01 0.000000 0.000000 0.000000 0.000000 0.000000 0.000000 10.000000 
Spine1 0.000000 0.000000 0.000000 0.000000 0.000000 0.000000 10.000000 
L_Leg01 0.000000 0.000000 0.000000 0.000000 0.000000 0.000000 10.000000 
L_Leg02 0.000000 0.000000 0.000000 0.000000 0.000000 0.000000 10.000000 
L_Leg03 0.000000 0.000000 0.000000 0.000000 0.000000 0.000000 10.000000 
L_Foot 0.000000 0.000000 0.000000 0.000000 0.000000 0.000000 10.000000 
L_Toe1_01 0.000000 0.000000 0.000000 0.000000 0.000000 0.000000 10.000000 
L_Toe2_01 0.000000 0.000000 0.000000 0.000000 0.000000 0.000000 10.000000 
L_Toe3_01 0.000000 0.000000 0.000000 0.000000 0.000000 0.000000 10.000000 
planeAlignerLeft 0.000000 0.000000 0.000000 0.000000 0.000000 0.000000 10.000000 
L_Toe1_02 0.000000 0.000000 0.000000 0.000000 0.000000 0.000000 10.000000 
L_Toe1_03 0.000000 0.000000 0.000000 0.000000 0.000000 0.000000 10.000000 
L_Toe2_02 0.000000 0.000000 0.000000 0.000000 0.000000 0.000000 10.000000 
L_Toe2_03 0.000000 0.000000 0.000000 0.000000 0.000000 0.000000 10.000000 
L_Toe3_02 0.000000 0.000000 0.000000 0.000000 0.000000 0.000000 10.000000 
L_Toe3_03 0.000000 0.000000 0.000000 0.000000 0.000000 0.000000 10.000000 
planeLockWeightLeft 0.000000 0.000000 0.000000 0.000000 0.000000 0.000000 10.000000 
R_Leg01 0.000000 0.000000 0.000000 0.000000 0.000000 0.000000 10.000000 
R_Leg02 0.000000 0.000000 0.000000 0.000000 0.000000 0.000000 10.000000 
R_Leg03 0.000000 0.000000 0.000000 0.000000 0.000000 0.000000 10.000000 
R_Foot 0.000000 0.000000 0.000000 0.000000 0.000000 0.000000 10.000000 
planeAlignerRight 0.000000 0.000000 0.000000 0.000000 0.000000 0.000000 10.000000 
R_Toe1_01 0.000000 0.000000 0.000000 0.000000 0.000000 0.000000 10.000000 
R_Toe2_01 0.000000 0.000000 0.000000 0.000000 0.000000 0.000000 10.000000 
R_Toe3_01 0.000000 0.000000 0.000000 0.000000 0.000000 0.000000 10.000000 
planeLockWeightRight 0.000000 0.000000 0.000000 0.000000 0.000000 0.000000 10.000000 
R_Toe1_02 0.000000 0.000000 0.000000 0.000000 0.000000 0.000000 10.000000 
R_Toe1_03 0.000000 0.000000 0.000000 0.000000 0.000000 0.000000 10.000000 
R_Toe2_02 0.000000 0.000000 0.000000 0.000000 0.000000 0.000000 10.000000 
R_Toe2_03 0.000000 0.000000 0.000000 0.000000 0.000000 0.000000 10.000000 
R_Toe3_02 0.000000 0.000000 0.000000 0.000000 0.000000 0.000000 10.000000 
R_Toe3_03 0.000000 0.000000 0.000000 0.000000 0.000000 0.000000 10.000000 
Rear_Leg02 0.000000 0.000000 0.000000 0.000000 0.000000 0.000000 10.000000 
Rear_Leg03 0.000000 0.000000 0.000000 0.000000 0.000000 0.000000 10.000000 
Rear_Leg04 0.000000 0.000000 0.000000 0.000000 0.000000 0.000000 10.000000 
Rear_Foot 0.000000 0.000000 0.000000 0.000000 0.000000 0.000000 10.000000 
planeAlignerCenter 0.000000 0.000000 0.000000 0.000000 0.000000 0.000000 10.000000 
Rear_Toe1_01 0.000000 0.000000 0.000000 0.000000 0.000000 0.000000 10.000000 
Rear_Toe2_01 0.000000 0.000000 0.000000 0.000000 0.000000 0.000000 10.000000 
Rear_Toe3_01 0.000000 0.000000 0.000000 0.000000 0.000000 0.000000 10.000000 
planeLockWeightCenter 0.000000 0.000000 0.000000 0.000000 0.000000 0.000000 10.000000 
Rear_Toe1_02 0.000000 0.000000 0.000000 0.000000 0.000000 0.000000 10.000000 
Rear_Toe1_03 0.000000 0.000000 0.000000 0.000000 0.000000 0.000000 10.000000 
Rear_Toe2_02 0.000000 0.000000 0.000000 0.000000 0.000000 0.000000 10.000000 
Rear_Toe2_03 0.000000 0.000000 0.000000 0.000000 0.000000 0.000000 10.000000 
Rear_Toe3_02 0.000000 0.000000 0.000000 0.000000 0.000000 0.000000 10.000000 
Rear_Toe3_03 0.000000 0.000000 0.000000 0.000000 0.000000 0.000000 10.000000 
Back_Bone 0.000000 0.000000 0.000000 0.000000 0.000000 0.000000 10.000000 
Head 0.000000 0.000000 0.000000 0.000000 0.000000 0.000000 10.000000 
Motor_Bone 0.000000 0.000000 0.000000 0.000000 0.000000 0.000000 10.000000 
Ping_Mechanism 0.000000 0.000000 0.000000 0.000000 0.000000 0.000000 10.000000 
BN_LookIK 0.000000 0.000000 0.000000 0.000000 0.000000 0.000000 10.000000 
bottomMouth 0.000000 0.000000 0.000000 0.000000 0.000000 0.000000 10.000000 
L_Mouth01 0.000000 0.000000 0.000000 0.000000 0.000000 0.000000 10.000000 
L_mouthFront 0.000000 0.000000 0.000000 0.000000 0.000000 0.000000 10.000000 
mouthGun 0.000000 0.000000 0.000000 0.000000 0.000000 0.000000 10.000000 
R_Mouth01 0.000000 0.000000 0.000000 0.000000 0.000000 0.000000 10.000000 
R_mouthFront 0.000000 0.000000 0.000000 0.000000 0.000000 0.000000 10.000000 
TopMouth 0.000000 0.000000 0.000000 0.000000 0.000000 0.000000 10.000000 
weapon_bone 0.000000 0.000000 0.000000 0.000000 0.000000 0.000000 10.000000 
#Beginning of Data. Separated by tabs
#Fr	Tx	Ty	Tz	Rx	Ry	Rz	SF
[Pinger_Root]
81 0.000000 0.000000 0.000000 -0.000069 0.000029 44.999935 0.000000
82 0.000000 0.000000 0.000000 -0.000069 0.000029 44.999935 0.000000
83 0.000000 0.000000 0.000000 -0.000069 0.000029 44.999935 0.000000
[Pelvis]
81 690.899597 407.238617 3651.053955 -83.702766 -76.314667 69.406609 3738.098389
82 747.425171 351.765259 3661.079834 -78.305542 -76.477776 65.802505 3753.117432
83 778.434265 321.302551 3683.096680 -77.625397 -77.012009 66.618797 3778.147217
[L_Hip]
81 5.766392 125.831482 872.656799 160.158691 -45.484905 122.312202 881.701050
82 5.766392 125.831482 872.656799 160.158691 -45.484905 122.312202 881.701050
83 5.766392 125.831482 872.656799 160.158691 -45.484905 122.312202 881.701050
[R_Hip]
81 5.765438 125.836372 -872.654907 38.087841 49.812687 125.703735 881.699829
82 5.765438 125.836372 -872.654907 38.087841 49.812687 125.703735 881.699829
83 5.765438 125.836372 -872.654907 38.087841 49.812687 125.703735 881.699829
[Rear_Leg01]
81 -192.298416 -925.602966 -0.001907 178.422363 -9.654325 -167.419678 945.367432
82 -192.298416 -925.602966 -0.001907 173.348038 -11.458571 -168.588455 945.367432
83 -192.298416 -925.602966 -0.001907 169.330215 -13.366381 -169.114838 945.367432
[Spine1]
81 290.604584 5.007505 0.000477 13.708258 -3.357400 9.257284 290.647736
82 290.604584 5.007505 0.000477 12.582758 -2.245666 11.679595 290.647736
83 290.604584 5.007505 0.000477 11.621755 -1.267762 13.882522 290.647736
[L_Leg01]
81 761.932007 -0.002384 -0.069261 -17.747238 -43.737110 39.220669 761.932068
82 761.932007 -0.002384 -0.069261 -15.301130 -48.104988 37.971352 761.932068
83 761.932007 -0.002384 -0.069261 -12.186563 -52.111320 37.329269 761.932068
[L_Leg02]
81 1441.140503 -0.000954 -0.000715 5.753242 -0.137851 -157.188141 1441.140503
82 1441.140503 -0.000954 -0.000715 5.286282 -0.153849 -153.060577 1441.140503
83 1441.140503 -0.000954 -0.000715 4.987408 -0.166015 -150.450226 1441.140503
[L_Leg03]
81 1686.963989 -0.000715 -0.000954 -0.040784 0.018619 121.123253 1686.963989
82 1686.963989 -0.000715 -0.000954 -0.038585 0.017889 120.808784 1686.963989
83 1686.963989 -0.000715 -0.000954 -0.036383 0.017171 120.494293 1686.963989
[L_Foot]
81 3041.570068 -30.715107 11.297464 18.418451 -7.960319 50.164536 3041.746094
82 3041.570068 -30.715107 11.297464 15.962388 -5.030374 48.684307 3041.746094
83 3041.570068 -30.715107 11.297464 13.900258 -2.030622 47.599438 3041.746094
[L_Toe1_01]
81 -188.216690 -224.732346 -21.137953 93.742744 -7.888599 -172.160660 293.899567
82 -188.216690 -224.732346 -21.137953 93.708694 -7.781065 -171.819656 293.899567
83 -188.216690 -224.732346 -21.137953 93.627480 -7.501272 -170.945145 293.899567
[L_Toe2_01]
81 200.746536 -219.926590 148.838394 -89.642555 -27.471689 -52.747932 332.896027
82 200.746536 -219.926590 148.838394 -89.575615 -27.280346 -53.045673 332.896027
83 200.746536 -219.926590 148.838394 -89.400124 -26.781261 -53.806389 332.896027
[L_Toe3_01]
81 188.832520 -219.859131 -191.078659 -99.228111 12.766603 -66.660477 347.140900
82 188.832520 -219.859131 -191.078659 -99.363449 12.848464 -67.212936 347.140900
83 188.832520 -219.859131 -191.078659 -99.615166 12.933666 -68.355125 347.140900
[planeAlignerLeft]
81 0.812531 -811.448792 -0.314951 0.000000 -90.000000 -90.001900 811.449280
82 0.812531 -811.448792 -0.314951 0.000000 -90.000000 -90.001900 811.449280
83 0.812531 -811.448792 -0.314951 0.000000 -90.000000 -90.001900 811.449280
[L_Toe1_02]
81 413.761139 0.000477 0.000000 0.001384 -25.953094 0.001384 413.761139
82 413.761139 0.000477 0.000000 0.001384 -25.949352 0.001384 413.761139
83 413.761139 0.000477 0.000000 0.001384 -25.945618 0.001384 413.761139
[L_Toe1_03]
81 464.317322 0.000358 -0.000089 0.003692 52.925282 0.003692 464.317322
82 464.317322 0.000358 -0.000089 0.003659 52.585514 0.003659 464.317322
83 464.317322 0.000358 -0.000089 0.003575 51.671562 0.003575 464.317322
[L_Toe2_02]
81 342.235809 -0.000477 0.000238 0.001188 -71.918533 0.001188 342.235809
82 342.235809 -0.000477 0.000238 0.001189 -71.775124 0.001189 342.235809
83 342.235809 -0.000477 0.000238 0.001189 -71.631653 0.001189 342.235809
[L_Toe2_03]
81 420.210846 -0.000715 0.000000 0.023014 84.153809 0.023014 420.210846
82 420.210846 -0.000715 0.000000 0.022291 83.963821 0.022291 420.210846
83 420.210846 -0.000715 0.000000 0.020572 83.459259 0.020572 420.210846
[L_Toe3_02]
81 329.270111 0.000954 0.000000 0.001177 -80.928444 0.001177 329.270111
82 329.270111 0.000954 0.000000 0.001177 -80.772209 0.001177 329.270111
83 329.270111 0.000954 0.000000 0.001178 -80.324936 0.001178 329.270111
[L_Toe3_03]
81 439.137451 -0.001907 0.000954 -179.996826 76.631828 -179.993301 439.137451
82 439.137451 -0.001907 0.000954 -179.996490 77.466316 -179.992966 439.137451
83 439.137451 -0.001907 0.000954 -179.995651 79.201401 -179.992142 439.137451
[planeLockWeightLeft]
81 -0.000954 0.000238 -0.000305 -0.011826 -0.004376 0.005620 0.001029
82 -0.000954 0.000238 -0.000305 -0.011826 -0.004376 0.005620 0.001029
83 -0.000954 0.000238 -0.000305 -0.011826 -0.004376 0.005620 0.001029
[R_Leg01]
81 761.455627 -0.001907 -0.000358 123.837219 -49.479359 11.613035 761.455688
82 761.455627 -0.001907 -0.000358 128.594421 -47.907448 7.841763 761.455688
83 761.455627 -0.001907 -0.000358 131.067200 -45.391468 7.467497 761.455688
[R_Leg02]
81 1441.140625 0.000000 -0.000238 -3.410093 -1.536189 173.573181 1441.140625
82 1441.140625 0.000000 -0.000238 -3.441501 -1.553669 172.101471 1441.140625
83 1441.140625 0.000000 -0.000238 -3.426153 -1.543980 172.864731 1441.140625
[R_Leg03]
81 1686.963989 0.000954 0.001431 0.115228 -0.072168 142.308762 1686.963989
82 1686.963989 0.000954 0.001431 0.115253 -0.072128 142.269577 1686.963989
83 1686.963989 0.000954 0.001431 0.115277 -0.072089 142.230377 1686.963989
[R_Foot]
81 3041.560059 -30.531288 -11.204481 -2.758363 -28.603569 78.583237 3041.734131
82 3041.560059 -30.531288 -11.204481 -4.196374 -26.339399 79.352142 3041.734131
83 3041.560059 -30.531288 -11.204481 -5.228944 -24.830408 79.753685 3041.734131
[planeAlignerRight]
81 -0.635147 -812.270569 -0.364304 0.000000 -89.960434 -90.005180 812.270874
82 -0.635147 -812.270569 -0.364304 0.000000 -89.960434 -90.005180 812.270874
83 -0.635147 -812.270569 -0.364304 0.000000 -89.960434 -90.005180 812.270874
[R_Toe1_01]
81 -188.383347 -224.864899 21.052242 76.807716 -1.316944 -179.240997 294.101532
82 -188.383347 -224.864899 21.052242 76.894058 -1.652001 -178.812759 294.101532
83 -188.383347 -224.864899 21.052242 76.923203 -1.706248 -178.300003 294.101532
[R_Toe2_01]
81 200.637817 -220.002121 -148.787384 -89.526573 32.822453 -55.260719 332.857574
82 200.637817 -220.002121 -148.787384 -89.529770 32.582825 -55.394585 332.857574
83 200.637817 -220.002121 -148.787384 -89.704773 32.599636 -55.695335 332.857574
[R_Toe3_01]
81 188.606735 -220.092957 191.126343 -73.379097 -7.778098 -69.767113 347.192566
82 188.606735 -220.092957 191.126343 -73.189156 -8.266092 -70.062065 347.192566
83 188.606735 -220.092957 191.126343 -73.134712 -8.471192 -70.392227 347.192566
[planeLockWeightRight]
81 -0.000477 0.000000 0.000000 -0.011823 -0.004379 -0.000027 0.000477
82 -0.000477 0.000000 0.000000 -0.011823 -0.004379 -0.000027 0.000477
83 -0.000477 0.000000 0.000000 -0.011823 -0.004379 -0.000027 0.000477
[R_Toe1_02]
81 413.762085 0.000477 -0.000119 0.001417 -21.781473 0.001417 413.762085
82 413.762085 0.000477 -0.000119 0.001415 -22.133818 0.001415 413.762085
83 413.762085 0.000477 -0.000119 0.001412 -22.486179 0.001412 413.762085
[R_Toe1_03]
81 464.317810 0.000000 0.001088 -0.012432 83.830833 -0.008930 464.317810
82 464.317810 0.000000 0.001088 -0.010627 82.574219 -0.007123 464.317810
83 464.317810 0.000000 0.001088 0.002951 81.026031 0.004705 464.317810
[R_Toe2_02]
81 342.234741 -0.000954 0.000238 0.001208 -62.538673 0.001208 342.234741
82 342.234741 -0.000954 0.000238 0.001205 -63.833458 0.001205 342.234741
83 342.234741 -0.000954 0.000238 0.001202 -64.861824 0.001202 342.234741
[R_Toe2_03]
81 420.210846 0.000715 -0.000268 -0.004440 64.936089 -0.000858 420.210846
82 420.210846 0.000715 -0.000268 -0.004695 67.231171 -0.001128 420.210846
83 420.210846 0.000715 -0.000268 -0.004941 69.064224 -0.001385 420.210846
[R_Toe3_02]
81 329.270355 -0.000477 -0.000954 0.001186 -73.274803 0.001186 329.270355
82 329.270355 -0.000477 -0.000954 0.001186 -73.404190 0.001186 329.270355
83 329.270355 -0.000477 -0.000954 0.001186 -73.711533 0.001186 329.270355
[R_Toe3_03]
81 439.137939 0.000238 0.001431 0.013704 80.174034 0.013704 439.137939
82 439.137939 0.000238 0.001431 0.014495 80.711639 0.014495 439.137939
83 439.137939 0.000238 0.001431 0.015889 81.527939 0.015889 439.137939
[Rear_Leg02]
81 1162.777710 -0.029802 0.005960 2.105766 -2.084585 -157.977341 1162.777710
82 1162.777710 -0.029802 0.005960 2.250595 -1.923774 -162.316803 1162.777710
83 1162.777710 -0.029802 0.005960 2.337704 -1.819506 -165.080139 1162.777710
[Rear_Leg03]
81 607.192505 -0.013351 -0.073195 0.010176 -0.005711 74.958435 607.192505
82 607.192505 -0.013351 -0.073195 0.010125 -0.005800 75.971481 607.192505
83 607.192505 -0.013351 -0.073195 0.010094 -0.005853 76.568840 607.192505
[Rear_Leg04]
81 995.874512 -0.020504 -0.011921 -0.045704 -0.016718 83.234169 995.874573
82 995.874512 -0.020504 -0.011921 -0.042525 -0.018876 86.287285 995.874573
83 995.874512 -0.020504 -0.011921 -0.042840 -0.018150 88.234688 995.874573
[Rear_Foot]
81 3096.176270 -0.067472 -0.041425 -169.276001 76.928314 24.129427 3096.176270
82 3096.176270 -0.067472 -0.041425 -171.933563 71.945061 18.767500 3096.176270
83 3096.176270 -0.067472 -0.041425 -172.907669 68.717239 15.321507 3096.176270
[planeAlignerCenter]
81 0.350077 0.966311 -838.790894 0.000009 0.000003 -179.999985 838.791565
82 0.350077 0.966311 -838.790894 0.000009 0.000003 -179.999985 838.791565
83 0.350077 0.966311 -838.790894 0.000009 0.000003 -179.999985 838.791565
[Rear_Toe1_01]
81 0.653352 83.966492 -371.173737 0.294278 41.909447 90.409836 380.553192
82 0.653352 83.966492 -371.173737 0.294290 41.909378 90.409866 380.553192
83 0.653352 83.966492 -371.173737 0.294299 41.909313 90.409874 380.553192
[Rear_Toe2_01]
81 178.200760 -294.826019 -362.060547 -7.199110 34.404507 -66.271820 499.765686
82 178.200760 -294.826019 -362.060547 -7.199149 34.404491 -66.271835 499.765686
83 178.200760 -294.826019 -362.060547 -7.199180 34.404469 -66.271835 499.765686
[Rear_Toe3_01]
81 -153.359680 -308.780914 -362.060852 3.290023 33.513557 -112.541801 499.952881
82 -153.359680 -308.780914 -362.060852 3.290032 33.513500 -112.541801 499.952881
83 -153.359680 -308.780914 -362.060852 3.290039 33.513443 -112.541817 499.952881
[planeLockWeightCenter]
81 -0.000062 0.000238 0.000000 -0.011814 -0.004373 -0.000015 0.000246
82 -0.000062 0.000238 0.000000 -0.011814 -0.004373 -0.000015 0.000246
83 -0.000062 0.000238 0.000000 -0.011814 -0.004373 -0.000015 0.000246
[Rear_Toe1_02]
81 379.707825 0.194073 0.000477 -0.000242 -31.679951 0.006934 379.707855
82 379.707825 0.194073 0.000477 -0.000242 -31.679995 0.006934 379.707855
83 379.707825 0.194073 0.000477 -0.000242 -31.680044 0.006934 379.707855
[Rear_Toe1_03]
81 500.129700 0.165701 0.000119 -0.000102 51.912788 0.007296 500.129761
82 500.129700 0.165701 0.000119 -0.000102 51.912922 0.007296 500.129761
83 500.129700 0.165701 0.000119 -0.000102 51.913055 0.007296 500.129761
[Rear_Toe2_02]
81 340.494507 0.000238 -0.000954 0.001192 -69.858315 0.001192 340.494507
82 340.494507 0.000238 -0.000954 0.001192 -69.858337 0.001192 340.494507
83 340.494507 0.000238 -0.000954 0.001192 -69.858368 0.001192 340.494507
[Rear_Toe2_03]
81 433.103577 0.000000 0.000238 0.006697 69.814087 0.006697 433.103546
82 433.103577 0.000000 0.000238 0.006697 69.814148 0.006697 433.103546
83 433.103577 0.000000 0.000238 0.006697 69.814201 0.006697 433.103546
[Rear_Toe3_02]
81 340.494141 -0.000358 -0.000477 0.008289 -67.278412 -0.009462 340.494171
82 340.494141 -0.000358 -0.000477 0.008289 -67.278465 -0.009462 340.494171
83 340.494141 -0.000358 -0.000477 0.008289 -67.278511 -0.009462 340.494171
[Rear_Toe3_03]
81 433.103577 0.001431 -0.000238 -0.000972 65.958961 -0.004547 433.103546
82 433.103577 0.001431 -0.000238 -0.000972 65.959007 -0.004547 433.103546
83 433.103577 0.001431 -0.000238 -0.000972 65.958984 -0.004547 433.103546
[Back_Bone]
81 1312.175781 -701.934692 0.000954 0.000023 -0.000007 -85.606667 1488.125488
82 1312.175781 -701.934692 0.000954 0.000023 -0.000007 -85.606667 1488.125488
83 1312.175781 -701.934692 0.000954 0.000023 -0.000007 -85.606667 1488.125488
[Head]
81 1406.159424 809.709290 0.001431 0.000625 -1.475623 7.768025 1622.625488
82 1406.159424 809.709290 0.001431 0.000625 -1.475624 7.768028 1622.625488
83 1406.159424 809.709290 0.001431 0.000625 -1.475623 7.768026 1622.625488
[Motor_Bone]
81 1158.364380 -417.834747 0.000477 -0.123916 0.061951 -105.915710 1231.419434
82 1158.364380 -417.834747 0.000477 -0.123322 0.062246 -105.915695 1231.419434
83 1158.364380 -417.834747 0.000477 -0.122727 0.062541 -105.915695 1231.419434
[Ping_Mechanism]
81 1234.329712 -438.072601 2.459561 0.000103 -0.000053 82.120995 1309.764648
82 1234.270874 -438.793091 1.975944 0.000103 -0.000053 82.120995 1309.949585
83 1234.212280 -439.513580 1.492323 0.000103 -0.000053 82.120995 1310.135254
[BN_LookIK]
81 193.241119 1380.371704 -0.002861 0.000000 89.965736 -31.038179 1393.832153
82 193.241119 1380.371704 -0.002861 0.000000 89.965736 -31.038179 1393.832153
83 193.241119 1380.371704 -0.002861 0.000000 89.965736 -31.038179 1393.832153
[bottomMouth]
81 -435.092926 615.759399 -0.000954 -0.000022 0.000016 73.527184 753.966492
82 -435.092926 615.759399 -0.000954 -0.000022 0.000016 73.527184 753.966492
83 -435.092926 615.759399 -0.000954 -0.000022 0.000016 73.527184 753.966492
[L_Mouth01]
81 554.440979 7.658243 838.222046 150.204178 23.759130 109.605339 1005.027161
82 554.440979 7.658243 838.222046 150.204178 23.759130 109.605339 1005.027161
83 554.440979 7.658243 838.222046 150.204178 23.759130 109.605339 1005.027161
[L_mouthFront]
81 551.629089 934.514771 339.150421 0.000081 2.804060 79.119301 1136.941284
82 551.629089 934.514771 339.150421 0.000081 2.804060 79.119301 1136.941284
83 551.629089 934.514771 339.150421 0.000081 2.804060 79.119301 1136.941284
[mouthGun]
81 55.332661 1627.420898 0.000000 0.000023 0.000009 -11.038128 1628.361328
82 55.332661 1627.420898 0.000000 0.000023 0.000009 -11.038128 1628.361328
83 55.332661 1627.420898 0.000000 0.000023 0.000009 -11.038128 1628.361328
[R_Mouth01]
81 554.442383 7.659197 -838.223938 29.795891 -23.759109 109.605331 1005.029541
82 554.442383 7.659197 -838.223938 29.795891 -23.759109 109.605331 1005.029541
83 554.442383 7.659197 -838.223938 29.795891 -23.759109 109.605331 1005.029541
[R_mouthFront]
81 551.629089 934.514282 -339.151367 0.000029 -2.803930 79.119133 1136.941162
82 551.629089 934.514282 -339.151367 0.000029 -2.803930 79.119133 1136.941162
83 551.629089 934.514282 -339.151367 0.000029 -2.803930 79.119133 1136.941162
[TopMouth]
81 461.269867 -56.106091 -0.008583 -0.000059 -0.000268 92.025169 464.669525
82 461.269867 -56.106091 -0.008583 -0.000059 -0.000268 92.025169 464.669525
83 461.269867 -56.106091 -0.008583 -0.000059 -0.000268 92.025169 464.669525
[weapon_bone]
81 -987.239868 1448.372803 0.001431 0.000000 89.965736 -31.038221 1752.833740
82 -987.239868 1448.372803 0.001431 0.000000 89.965736 -31.038221 1752.833740
83 -987.239868 1448.372803 0.001431 0.000000 89.965736 -31.038221 1752.833740
